<svg version="1.1" xmlns="http://www.w3.org/2000/svg" viewBox="0 0 1241.0736068705698 549" width="2482.1472137411397" height="1098">
  <!-- svg-source:excalidraw -->
  
  <defs>
    <style>
      @font-face {
        font-family: "Virgil";
        src: url("https://excalidraw.com/Virgil.woff2");
      }
      @font-face {
        font-family: "Cascadia";
        src: url("https://excalidraw.com/Cascadia.woff2");
      }
    </style>
  </defs>
  <rect x="0" y="0" width="1241.0736068705698" height="549" fill="#ffffff"></rect><g stroke-linecap="round" transform="translate(15 90.5) rotate(0 91.81578947368405 33.885964912280656)"><path d="M-1.63 1.54 C40.57 0.71, 82.15 1.14, 182.45 -0.91 M0.51 0.76 C41.33 0.87, 82.16 1.53, 182.75 -0.39 M182.35 -1.53 C183.52 18.07, 184.41 34.73, 184.53 68.04 M183.82 0.73 C182.98 21.89, 183.38 42.8, 183.03 67.76 M184.37 67.24 C125.67 65.36, 66.71 67.42, 0.57 67.26 M183.79 68.17 C112.51 66.41, 39.83 65.58, 0.24 68.02 M-1.15 69.11 C0.98 43.3, -0.74 14.32, -1.91 -1.08 M-0.73 67.19 C-0.07 47.29, -0.76 25.09, -1 -0.84" stroke="#000000" stroke-width="1" fill="none"></path></g><g transform="translate(25 98.85087719298258) rotate(0 80.84210526315775 25.82456140350871)"><text x="0" y="35.64912280701742" font-family="Virgil, Segoe UI Emoji" font-size="40.42105263157887px" fill="#000000" text-anchor="start" style="white-space: pre;" direction="ltr">pdf filer</text></g><g stroke-linecap="round" transform="translate(11 203.7830188679245) rotate(0 177 32.22169811320754)"><path d="M-0.55 0.32 C127.71 -1.29, 253.63 -1.62, 352.82 -1.02 M0.17 -0.43 C77.25 2.45, 154.63 2.14, 354.29 -0.18 M354.99 -0.33 C352.6 13.61, 353.08 29.63, 354.45 66.14 M353.05 0.69 C352.91 23.14, 353.26 45.44, 353.68 64.96 M354.29 64 C260.04 66.28, 165.37 65.85, 0.6 64.72 M354.58 64.12 C252.97 64.98, 152.47 65.56, -0.58 64.03 M-0.68 66.22 C-0.95 41.1, 0.43 15.81, 0.3 -0.67 M-0.18 63.93 C-0.79 40.84, -0.7 17.64, 0.54 0.24" stroke="#000000" stroke-width="1" fill="none"></path></g><g transform="translate(17 209.89622641509436) rotate(0 166.5 23)"><text x="0" y="32" font-family="Virgil, Segoe UI Emoji" font-size="36px" fill="#000000" text-anchor="start" style="white-space: pre;" direction="ltr">gamle IT systemer</text></g><g stroke-linecap="round" transform="translate(11 301) rotate(0 187 23.5)"><path d="M0.86 0.68 C96.7 -3.33, 191.33 -3.21, 372.85 -1.12 M0.33 0.17 C122.23 0.2, 244.21 -0.52, 374.34 -0.3 M373.01 -1.27 C374.36 16.87, 375.61 33.83, 372.51 45.95 M374.61 -0.26 C374.71 9.31, 374.84 18.93, 374.65 47.8 M374.02 46.88 C252.86 48.08, 132.78 47.32, -0.26 47.44 M373.73 46.49 C228.61 44.55, 82.26 45.54, -0.34 46.98 M0.58 47.08 C-1.19 34.81, -1.09 23.4, 0.85 0.04 M0.24 46.58 C1.13 34.3, 0.48 20.4, -0.97 -0.03" stroke="#000000" stroke-width="1" fill="none"></path></g><g transform="translate(15 296.669811320755) rotate(0 173.5 23)"><text x="0" y="32" font-family="Virgil, Segoe UI Emoji" font-size="36px" fill="#000000" text-anchor="start" style="white-space: pre;" direction="ltr">proprietary systems</text></g><g stroke-linecap="round" transform="translate(10 10) rotate(0 65.5 23.5)"><path d="M-1.83 -1.58 C46.89 -2.48, 95.22 -0.06, 129.68 0.06 M0.45 -0.27 C45.75 0.47, 92.49 0.4, 130.83 -0.88 M131.45 1.69 C131.69 10.28, 129.65 21.66, 132.38 45.78 M130.68 0.52 C130.54 17.63, 131.68 34.18, 130.65 47.23 M131.93 47.43 C91.17 46.15, 52.71 48.36, -1.01 45.34 M130.1 46.36 C98.13 47.05, 63.8 47.26, 0.89 46.35 M0.3 46.33 C1.38 32.39, 0.02 15.71, -1.02 -1.03 M0.54 47.24 C0.09 30.8, 0.17 17.15, 0.79 0.67" stroke="#000000" stroke-width="1" fill="none"></path></g><g transform="translate(16 14.75471698113222) rotate(0 60 23)"><text x="0" y="32" font-family="Virgil, Segoe UI Emoji" font-size="36px" fill="#000000" text-anchor="start" style="white-space: pre;" direction="ltr">billeder</text></g><g stroke-linecap="round" transform="translate(12 390) rotate(0 183 23.5)"><path d="M-0.89 -0.18 C78.5 1.62, 157.7 3.15, 366.73 1.04 M-0.31 0.54 C110.18 -1.25, 221.11 -1.38, 366.23 -0.62 M365.94 0.39 C366.66 11.2, 367.86 21.68, 367.35 47.92 M366.08 -0.92 C365.46 9.79, 366.24 21.42, 365.59 47.28 M365.73 46.99 C281.89 45.75, 195.9 47.16, 0.19 47.71 M365.48 47 C273.97 47.61, 181.23 47.35, 0.61 47.52 M1.67 48.42 C1.1 27.34, 1.39 7.82, -0.82 1.59 M0.05 47.59 C-0.82 34.74, 0.7 23.79, 0.65 0.88" stroke="#000000" stroke-width="1" fill="none"></path></g><g transform="translate(12 387.5) rotate(0 175.5 23)"><text x="175.5" y="32" font-family="Virgil, Segoe UI Emoji" font-size="36px" fill="#000000" text-anchor="middle" style="white-space: pre;" direction="ltr">hjemmesider og apps</text></g><g stroke-linecap="round" transform="translate(12 473) rotate(0 75 33)"><path d="M-0.95 -1.59 C35.84 2.19, 70.35 1.05, 150.94 1.24 M0.26 0.68 C37.59 0.77, 74.05 -0.48, 150.02 0.32 M151.25 1.85 C151.91 20.94, 151.05 37.74, 151.57 65.87 M149.09 -0.13 C149.41 19.92, 149.67 39.97, 150.42 65.72 M149.01 64.02 C109.52 66.7, 67.63 65.43, 0.09 66.68 M149.72 65.14 C116.83 67.2, 85.89 67.19, -0.6 65.68 M-1.01 67.11 C-2.36 39.86, 1.12 14.24, 0.58 0.69 M-0.78 66.84 C-0.65 46.52, 0.49 26.58, 0.27 -0.6" stroke="#000000" stroke-width="1" fill="none"></path></g><g transform="translate(12 480.5) rotate(0 67 23)"><text x="67" y="32" font-family="Virgil, Segoe UI Emoji" font-size="36px" fill="#000000" text-anchor="middle" style="white-space: pre;" direction="ltr">Prøv os</text></g><g stroke-linecap="round" transform="translate(427.5 224.5) rotate(0 188.2546012269936 112.57055214723908)"><path d="M1.01 -0.11 C84.77 -2.32, 171.14 -2.82, 375.4 0.85 M-0.18 0.07 C115.32 -0.95, 232.17 -0.85, 376.2 0.19 M375.51 1.66 C375 87.01, 376.17 175.1, 376.24 224.83 M376.36 -0.32 C378.01 62.29, 378.13 125.56, 376.23 225.11 M375.66 224.94 C284.93 225, 190.86 224.27, -0.05 224.41 M376.16 225.54 C277.71 227.56, 177.89 227.65, -0.51 225.6 M-0.09 224.8 C1.13 154.29, -0.29 86.82, 1.25 1.71 M-0.09 225.08 C-1.55 145.93, -1.33 66, 0.38 -0.52" stroke="#000000" stroke-width="1" fill="none"></path></g><g transform="translate(433.9723926380375 232.1196319018419) rotate(0 181.26380368098125 104.97239263803664)"><text x="0" y="36.48619631901831" font-family="Virgil, Segoe UI Emoji" font-size="41.30061349693243px" fill="#000000" text-anchor="start" style="white-space: pre;" direction="ltr">Vi koder og er</text><text x="0" y="88.97239263803662" font-family="Virgil, Segoe UI Emoji" font-size="41.30061349693243px" fill="#000000" text-anchor="start" style="white-space: pre;" direction="ltr"> kreative og </text><text x="0" y="141.45858895705493" font-family="Virgil, Segoe UI Emoji" font-size="41.30061349693243px" fill="#000000" text-anchor="start" style="white-space: pre;" direction="ltr">der går sport i</text><text x="0" y="193.94478527607325" font-family="Virgil, Segoe UI Emoji" font-size="41.30061349693243px" fill="#000000" text-anchor="start" style="white-space: pre;" direction="ltr"> at knække nøden</text></g><g stroke-linecap="round"><g transform="translate(823.4632238480167 329.57845759987265) rotate(0 32.744143585800316 1.2342164972424712)"><path d="M-0.06 -0.75 C11.25 -0.11, 55.95 2.56, 67.03 3.22 M-1.55 1.47 C9.76 1.77, 55.37 0.68, 66.61 1.21" stroke="#000000" stroke-width="1" fill="none"></path></g><g transform="translate(823.4632238480167 329.57845759987265) rotate(0 32.744143585800316 1.2342164972424712)"><path d="M37.1 12.94 C45.29 9.67, 51.83 6.38, 66.52 0.02 M37.52 10.5 C47.67 7.73, 55.95 4.04, 67.34 2.01" stroke="#000000" stroke-width="1" fill="none"></path></g><g transform="translate(823.4632238480167 329.57845759987265) rotate(0 32.744143585800316 1.2342164972424712)"><path d="M37.24 -7.58 C45.3 -6.09, 51.8 -4.63, 66.52 0.02 M37.66 -10.02 C47.84 -6.16, 56.06 -3.23, 67.34 2.01" stroke="#000000" stroke-width="1" fill="none"></path></g></g><g transform="translate(915.5452443444601 218.6632653061223) rotate(0 154.5 114)"><text x="0" y="32.6" font-family="Virgil, Segoe UI Emoji" font-size="36px" fill="#000000" text-anchor="start" style="white-space: pre;" direction="ltr">- CSV</text><text x="0" y="78.2" font-family="Virgil, Segoe UI Emoji" font-size="36px" fill="#000000" text-anchor="start" style="white-space: pre;" direction="ltr">- sql-database</text><text x="0" y="123.80000000000001" font-family="Virgil, Segoe UI Emoji" font-size="36px" fill="#000000" text-anchor="start" style="white-space: pre;" direction="ltr">- hjmmeside / app</text><text x="0" y="169.4" font-family="Virgil, Segoe UI Emoji" font-size="36px" fill="#000000" text-anchor="start" style="white-space: pre;" direction="ltr">- xml</text><text x="0" y="215" font-family="Virgil, Segoe UI Emoji" font-size="36px" fill="#000000" text-anchor="start" style="white-space: pre;" direction="ltr">- mm.</text></g><g stroke-linecap="round" transform="translate(905.5 208.03455818022746) rotate(0 162.78680343528492 125.92659846090675)"><path d="M-0.3 0.29 C115.35 0.01, 233.48 -0.89, 326.47 -0.46 M0.56 0.66 C83.84 1.33, 167.78 1.47, 325.65 0.13 M326.33 -0.7 C323.54 85.62, 325.1 170.9, 326.35 253.47 M325.64 -0.52 C325.6 86.19, 324.71 171.06, 326.08 251.43 M325.16 251.26 C224.78 251.81, 122.34 251.39, 0.17 250.55 M325.88 252.21 C217.27 251.68, 108.17 251.68, 0.38 251.49 M0.23 253.02 C0.18 193.41, 0.51 133.97, -1.39 0.93 M-0.79 252.24 C0.64 168.8, 0.45 85.38, 0.07 -0.59" stroke="#000000" stroke-width="1" fill="none"></path></g><g stroke-linecap="round"><g transform="translate(388.78623732201754 320.6722525171808) rotate(0 11.311312671331564 8.55076630395331)"><path d="M-0.21 -0.09 C3.76 2.57, 20.19 14.07, 24.41 16.82 M-1.79 -1.18 C2 1.59, 19.18 15.18, 23.61 18.28" stroke="#000000" stroke-width="1" fill="none"></path></g><g transform="translate(388.78623732201754 320.6722525171808) rotate(0 11.311312671331564 8.55076630395331)"><path d="M9.39 14.35 C14.26 16.68, 18.67 17.15, 22.26 16.85 M9.37 14.22 C14.08 15.37, 19.55 17.59, 22.93 18.2" stroke="#000000" stroke-width="1" fill="none"></path></g><g transform="translate(388.78623732201754 320.6722525171808) rotate(0 11.311312671331564 8.55076630395331)"><path d="M15.45 6.28 C18.28 11.4, 20.58 14.67, 22.26 16.85 M15.43 6.15 C17.96 10.26, 21.22 15.43, 22.93 18.2" stroke="#000000" stroke-width="1" fill="none"></path></g></g><g stroke-linecap="round"><g transform="translate(207.76549032543244 102.62001616267491) rotate(0 108.4087208187239 73.48881797624128)"><path d="M1.77 -1.98 C38.3 22.47, 181.29 124.43, 217.53 148.96 M-0.71 3.11 C35.51 26.64, 178.37 121.29, 214.78 145.39" stroke="#000000" stroke-width="1" fill="none"></path></g><g transform="translate(207.76549032543244 102.62001616267491) rotate(0 108.4087208187239 73.48881797624128)"><path d="M182.77 137.03 C196.53 140.71, 198.2 144.36, 212.64 142.19 M184.73 137.74 C194.8 139.69, 204.5 141.89, 216.39 146.49" stroke="#000000" stroke-width="1" fill="none"></path></g><g transform="translate(207.76549032543244 102.62001616267491) rotate(0 108.4087208187239 73.48881797624128)"><path d="M194.1 119.92 C205.4 127.86, 204.35 135.63, 212.64 142.19 M196.06 120.63 C202.99 127.71, 209.37 134.92, 216.39 146.49" stroke="#000000" stroke-width="1" fill="none"></path></g></g><g stroke-linecap="round"><g transform="translate(377.2561469083996 241.2641356433827) rotate(0 18.087534233846498 14.942648324957588)"><path d="M-0.47 0.05 C5.49 4.85, 30.56 24.8, 36.65 29.86 M1.48 -0.97 C7.18 4.46, 29.4 25.44, 35.58 30.85" stroke="#000000" stroke-width="1" fill="none"></path></g><g transform="translate(377.2561469083996 241.2641356433827) rotate(0 18.087534233846498 14.942648324957588)"><path d="M13.43 21.29 C20.02 23.83, 29.27 30.41, 37.23 32.44 M12.88 21.66 C23.11 25.14, 31.17 28.45, 36.49 30.53" stroke="#000000" stroke-width="1" fill="none"></path></g><g transform="translate(377.2561469083996 241.2641356433827) rotate(0 18.087534233846498 14.942648324957588)"><path d="M24.53 9.14 C27.08 16.18, 32.17 27.31, 37.23 32.44 M23.98 9.51 C29.89 17.87, 33.55 25.98, 36.49 30.53" stroke="#000000" stroke-width="1" fill="none"></path></g></g><g stroke-linecap="round"><g transform="translate(160.7603447849209 35.691347348769) rotate(0 127.03531996818953 76.31004027162857)"><path d="M0.45 -0.69 C43.05 24.76, 212.62 126.45, 254.84 151.75 M-0.77 1.56 C41.82 27.31, 212.1 128.22, 254.38 153.31" stroke="#000000" stroke-width="1" fill="none"></path></g><g transform="translate(160.7603447849209 35.691347348769) rotate(0 127.03531996818953 76.31004027162857)"><path d="M223.75 149.32 C231.95 148.75, 237.87 148.41, 256.3 154.1 M223.95 147.21 C232 148.53, 237.56 150.95, 255.14 153.46" stroke="#000000" stroke-width="1" fill="none"></path></g><g transform="translate(160.7603447849209 35.691347348769) rotate(0 127.03531996818953 76.31004027162857)"><path d="M234.22 131.67 C239.79 135.34, 243.21 139.19, 256.3 154.1 M234.42 129.56 C240.34 134.6, 243.7 140.74, 255.14 153.46" stroke="#000000" stroke-width="1" fill="none"></path></g></g><g stroke-linecap="round"><g transform="translate(369.4814907688648 379) rotate(0 23.892217948737027 -13.125074944944231)"><path d="M-0.48 -0.44 C7.53 -4.7, 40.18 -21.75, 48.27 -25.81 M1.47 -1.72 C9.33 -5.83, 39.85 -21.12, 47.49 -24.74" stroke="#000000" stroke-width="1" fill="none"></path></g><g transform="translate(369.4814907688648 379) rotate(0 23.892217948737027 -13.125074944944231)"><path d="M28.02 -4.73 C33.26 -11.21, 40.86 -16.76, 47.11 -23.22 M28.96 -4.31 C32.56 -10.21, 35.92 -14.14, 47.83 -23.97" stroke="#000000" stroke-width="1" fill="none"></path></g><g transform="translate(369.4814907688648 379) rotate(0 23.892217948737027 -13.125074944944231)"><path d="M19.89 -21.32 C27.68 -22.5, 37.86 -22.79, 47.11 -23.22 M20.83 -20.9 C26.32 -23.17, 31.45 -23.47, 47.83 -23.97" stroke="#000000" stroke-width="1" fill="none"></path></g></g><g stroke-linecap="round"><g transform="translate(171.00892693303524 534.7589532170857) rotate(0 122.73764351129267 -48.0390299030031)"><path d="M0.3 -0.59 C41.49 -16.7, 205.29 -79.94, 246.48 -96.18 M-1.01 1.71 C40.08 -14.75, 204.09 -81.31, 245.45 -97.79" stroke="#000000" stroke-width="1" fill="none"></path></g><g transform="translate(171.00892693303524 534.7589532170857) rotate(0 122.73764351129267 -48.0390299030031)"><path d="M222.14 -78.02 C230.07 -81.23, 232.38 -86.15, 244.89 -96.23 M224.08 -77.29 C231.36 -84.44, 238.1 -92.91, 244.77 -97.5" stroke="#000000" stroke-width="1" fill="none"></path></g><g transform="translate(171.00892693303524 534.7589532170857) rotate(0 122.73764351129267 -48.0390299030031)"><path d="M214.47 -97.06 C224.32 -95.71, 228.48 -96.04, 244.89 -96.23 M216.41 -96.33 C226.4 -96.83, 235.83 -98.61, 244.77 -97.5" stroke="#000000" stroke-width="1" fill="none"></path></g></g></svg>